<?xml version="1.0" encoding="UTF-8"?>
<!DOCTYPE svg PUBLIC "-//W3C//DTD SVG 1.1//EN" "http://www.w3.org/Graphics/SVG/1.1/DTD/svg11.dtd">
<!-- Creator: CorelDRAW -->
<svg xmlns="http://www.w3.org/2000/svg" xml:space="preserve" width="481.265mm" height="120.207mm" version="1.1" style="shape-rendering:geometricPrecision; text-rendering:geometricPrecision; image-rendering:optimizeQuality; fill-rule:evenodd; clip-rule:evenodd"
viewBox="0 0 92856.67 23193.06"
 xmlns:xlink="http://www.w3.org/1999/xlink"
 xmlns:xodm="http://www.corel.com/coreldraw/odm/2003">
 <defs>
  <style type="text/css">
   <![CDATA[
    .fil7 {fill:#1693D8}
    .fil0 {fill:#28B7EB}
    .fil4 {fill:#4557A6}
    .fil3 {fill:#4887CC}
    .fil6 {fill:#532A72}
    .fil10 {fill:#6E4D73}
    .fil8 {fill:#74ABCE}
    .fil9 {fill:#7B6EC2}
    .fil2 {fill:#8D4BA3}
    .fil5 {fill:#A82B78}
    .fil1 {fill:#CB3C97}
    .fil11 {fill:url(#id0);fill-rule:nonzero}
    .fil12 {fill:url(#id1);fill-rule:nonzero}
   ]]>
  </style>
  <linearGradient id="id0" gradientUnits="userSpaceOnUse" x1="23274.85" y1="8471.94" x2="92856.67" y2="8471.94">
   <stop offset="0" style="stop-opacity:1; stop-color:#28B7EB"/>
   <stop offset="1" style="stop-opacity:1; stop-color:#E01696"/>
  </linearGradient>
  <linearGradient id="id1" gradientUnits="userSpaceOnUse" x1="24110.66" y1="17843.34" x2="92760.51" y2="17843.34">
   <stop offset="0" style="stop-opacity:1; stop-color:#2DB3E9"/>
   <stop offset="1" style="stop-opacity:1; stop-color:#D71E9A"/>
  </linearGradient>
 </defs>
 <g id="Ebene_x0020_1">
  <metadata id="CorelCorpID_0Corel-Layer"/>
  <path class="fil0" d="M3676.68 16225.21c58.37,-53.08 165.95,156.34 209.69,209.54 96.01,116.79 122.71,179.11 208.42,302.88l83.78 -168.05c-99.46,-157.48 -120.99,-111.25 -225.18,-300.28 -62.05,-112.58 -88.43,-187.25 -121.9,-307.09 -250.27,-175.44 -1162.31,-1831.24 -1390.69,-2199.32l-574.18 -1191.27c-118,-209.46 -519.17,-1070.77 -524.01,-1277.84 159.43,20.36 256.67,141.58 405.41,212.02 326.42,-149.99 153.58,-435.22 223.72,-706.61l-4.71 169.83c92.3,-44.38 71.22,33.67 106.66,-104.07l579.89 1169.66 -560.02 -1357.78c-178.36,-488.34 -347.55,-983.08 -488.76,-1484.89 -298.62,-1061.07 -432.17,-2435.17 -166.14,-3520.57 519.31,-2118.65 2325.81,-3015.75 4139.86,-3695.45 57.59,-133.94 205.45,-126.78 335.05,-166.43l1101.65 -301.97 -96.14 -53.52 508.15 -202.61c-47.25,-119.61 30.77,-7.16 -99.54,-102.11 23.42,-96.34 28.19,-211.25 54.1,-288.97 85.09,-255.07 124.91,-280.58 287.99,-296.55 28.29,-88.72 1.62,64.46 -1.66,-25.04 -2.86,-78.39 -33.36,60.28 1.66,-30.06 406.09,-24.75 1122,-213.28 1485.81,-149.57 -257.87,-21.2 -125.45,30.48 -330.05,-87.85 -208.42,-120.53 -683.04,8.1 -885.41,-14.93 -169.96,-19.37 -89.85,44.01 -156.75,-81.27 -1109.32,236.62 -1592.49,239.15 -2795.82,636.75 -2540.42,839.38 -4664.1,2556.45 -4948.9,5374.84 -199.58,1974.94 402.71,3866.86 1154.67,5659.84 337.73,805.25 727.28,1528.3 1145.77,2290.94 228.25,415.93 1048.37,1793.23 1337.61,2087.79z"/>
  <path class="fil1" d="M16474.12 2421.18c168.36,117.14 402.92,209.4 593.65,323.47 578.17,345.79 1054.74,733.93 1504.2,1219.13 1355.98,1463.78 1100.72,4083.46 505.95,5842.59 -153.52,454.07 -286.44,880.63 -478.48,1323.03 -88.79,204.56 -522.72,1117.54 -538.02,1251l-46.25 98.96c167.61,80.17 90.24,14.57 183.86,162.28 43.33,68.36 105.29,84.2 196.63,106.2l12.54 203.13c120.09,40.92 332.52,-119.76 178.22,404.83 -34.71,117.98 -202.4,454.03 -254.3,531.9l-592.68 1008.4c-274.67,544.08 -1218.03,1715.61 -1297.94,1923.5 133.77,-52.71 87.33,-65.52 178.92,-104.25l163.75 97.44c36.12,-239.89 27.19,-38.32 170.14,-331.82 115.82,-237.84 -57.63,119.16 224.24,-282.7 137.72,-196.34 272.05,-424.96 437.03,-591.87 1942.59,-2823.83 4392.36,-7977.02 2646.09,-11424.85 -240.23,-474.29 -692.22,-1125.38 -1080.81,-1475.57 -331.38,-298.62 -1101.28,-943.53 -1500.4,-1087.83l-219.05 -23.11c-72.33,76.44 -115.82,126.4 -437.98,-38.01 -198.77,-101.45 -179.71,-54.87 -359.68,-116.33 -217.21,-74.19 -521.56,-270.7 -724.65,-87.21 58.5,214.98 8.16,27.57 136.53,104.83 -95.47,116.92 -15.57,20.97 -93.11,53.72l-114.55 80.3 70.12 270.2 -138.03 140.15c115.61,73.3 214.36,163.48 349.84,232.98 150.3,77.1 386.83,127.59 324.24,185.51z"/>
  <path class="fil2" d="M10614.28 11162.7c-36.1,185.61 -752.28,1663.22 -892.11,1976.27l-904.13 1976.39 788.75 23.23c431.03,0.68 867.16,11.79 1297.29,5.83 195.05,-2.68 407.51,-18.73 611.47,-24.81 224.3,-6.68 410.81,-57.79 622.28,-67.51 462.68,-25.95 1208.55,-341.16 1633.09,-550.48 345.89,-170.52 1027.46,-689.69 1235.14,-970.29 -30.25,-75.92 -27.57,-36.52 45.73,-128.02 -104.4,-95.1 -45.01,-98.94 -205.14,-66.35l1.81 -213.65 -136.6 -100.48c68.9,-25.37 140.67,-81.85 179.61,-156.5 2.49,-4.77 89.2,-230.37 93.31,-247.74 -91.09,84.89 -357.54,363.45 -428.62,453.55 -131.97,167.26 -287.54,290.57 -453.9,430.49 -1176.76,989.83 -2859.26,1017.02 -4291.55,955.26 29.58,-154.55 1159.18,-2494.56 1324.44,-2832.5 194.35,-397.48 1285.23,-2578.45 1329.16,-2827.19l-978.49 14.07 -760.21 27.24 49.84 72.89 -127.42 12.99c111.83,16.73 59.54,4.21 101.66,80.65 62.94,114.22 38.84,274.63 -29.21,288.22 128.87,7.97 491.15,63.9 610.47,106.54 104.69,357.37 -291.54,920.84 -485.17,1351.35 -69.36,154.24 -104.86,316.91 -231.49,410.54z"/>
  <path class="fil3" d="M3831.48 15962.21c33.48,119.84 59.85,194.51 121.9,307.09 104.19,189.03 125.72,142.8 225.18,300.28l-83.78 168.05c-85.71,-123.77 -112.41,-186.09 -208.42,-302.88 -43.74,-53.19 -151.32,-262.61 -209.69,-209.54 130.39,325.38 1200.66,1616.65 1481.84,1965.82 842.37,1046 2416.53,2639.15 3391.97,3483.58 210.5,182.25 1757.9,1509.53 1894.66,1518.46 -21.28,-413.92 -52.71,-3074.99 40.75,-3291.62l-124.14 -65.7c-956.84,-145.5 -1052.06,-1461.81 -127.44,-1735.08 107.99,-63.56 80.59,-38.13 166.14,-139.11 11.5,-192.4 34.63,-524.17 -31.93,-682.96 58.5,-49.41 85.9,-71.27 106.49,-222.08l-334.43 -25.55c-295.26,46.65 -668.49,171.39 -884.18,370.45 -160.93,148.53 -506.96,458.45 -541.36,684.79 70.95,0.6 224.35,-257.27 304.89,-313.11l135.48 -94.29c296.36,-283.16 565.28,-231.13 664.05,-267.57 0.89,207.34 -36.25,466.25 32.14,656.31 -175.29,126.74 -181,203.32 -241.8,402.07 -226.07,739.07 38.11,691.89 -110,1113.86 -56.3,160.45 -32.82,96.55 -58.37,279.01 -17.5,124.93 -25.06,169.92 -26.8,311.2l-45.61 27.13c-135.04,158.44 34.4,51.32 -153.02,143.03l-26.39 216.75c-282.82,-129.48 -236.68,-549.62 -454.71,-655.27l95.6 234.5c109.24,130.2 215.85,456.98 290.98,626.31l658.65 1143.51c100.58,173.55 264.79,483.77 305.76,680.2 -551.51,-158.85 -3533.94,-3163.55 -3883.67,-3603.51 -236.05,-296.98 -651.82,-752.5 -838.78,-1032.32 -82.66,-123.71 -116.27,-61.68 -152.56,-231.05 -64.79,-302.28 -71.29,-21.09 -176.31,-366.61 -43.51,-143.12 -2.6,24.27 -68.55,-134.62 -31.95,-76.98 -19.87,-392.04 44.4,-519.71 96.3,-191.23 124.51,-101.6 178.01,-198.27 53.37,-96.39 -3.3,-214.3 -6.89,-327.75 -77.85,-173.63 -407.05,-578.73 -539.26,-768.49l-1497 -2416.61c7.12,278.67 260.24,500.53 313.76,754.25 40.27,190.9 -2.47,64.33 63.92,202.4l170.91 374.75c122.9,227.94 -42.31,-224.16 241.62,469.35 40.25,98.34 49.82,123.43 42.89,245.44 -14.53,255.69 -229.25,397.58 -227.42,499.66 2.74,151.61 90.12,268.38 80.5,425.42z"/>
  <path class="fil1" d="M14259.72 6524.92c104.59,85.38 266.24,128.5 399.06,192.71 698.92,337.94 1423.74,1185.69 1639.53,1935.23 77.56,269.44 0.93,332.59 -2.06,579.08 -53.54,-52.98 -67.32,-5.46 -70.58,-200.37 -34.92,91.96 -48.43,58.37 -149.78,65.62l-89.53 -95.26c5.69,34.5 10.36,113.91 7.16,145.85 -13.2,131.34 -16.17,98.44 -53.77,147.25l-288.76 -563.72c8.57,157.9 161.3,491.85 182.41,1027 28.98,734.63 -97.63,1389.67 -390.82,2057.97 -130.1,296.55 -357.99,568.89 -457.8,802.31 -4.11,17.36 -90.82,242.97 -93.31,247.74 -38.94,74.65 -110.71,131.12 -179.61,156.5l136.6 100.48 -1.81 213.65c160.12,-32.59 100.74,-28.75 205.14,66.35 -73.3,91.49 -75.98,52.09 -45.73,128.02 475.97,-378.19 897.67,-1203.71 1186.46,-1748.91 192.33,127.27 34.98,133.54 177.6,167.13 5.73,22.71 -45.25,85.57 60.6,-22.71 106.56,-108.99 -61.3,-27.44 121.61,-109.36 107.72,42.24 122.98,69.36 170.18,171.55 68.9,-124.54 0.15,-146.27 170.41,-255.32 173.63,-282.24 298.64,-1377.48 297.38,-1735.81 -4.11,-1177.84 -341.93,-2161.29 -1104.67,-3038.44 -222.58,-255.98 -869.98,-766.97 -1219.73,-884.04 -164.58,-8.7 -216.17,-49.51 -448.09,18.14 -38.05,143.22 -32.22,59.18 9.86,180.38l-138.24 77.41 -29.71 173.59z"/>
  <path class="fil3" d="M7734.75 15735.96c169.46,-53.43 393.82,-199.23 541.94,-297.23 96.28,-63.69 173.94,-92.98 270.39,-171.87 123.43,-100.93 133.61,-152.69 273.84,-217.27l-2.87 65.77 904.13 -1976.39c139.83,-313.05 856.01,-1790.66 892.11,-1976.27 23,-193.87 215.96,-594.63 312.34,-763.8 36.25,-63.65 148.66,-311.87 168.71,-379.67 35.31,-119.34 6.15,-138.94 11.36,-230.89l15.65 -59c26.76,-317.8 -1209.44,-249.51 -1436.34,-251.13 117.6,-49.99 84.16,18.21 195.28,-57.57 -187.15,-3.4 -305.25,11.54 -416.56,-95 -205.7,-196.9 -40.61,-205.02 -196.15,-329.74l99.11 -28.4c-77.56,-45.5 -63.9,-21.01 -63.77,-80.94 0.02,-5.29 0.95,-9.05 -0.58,-13.18 -132.28,-7.06 -137.97,-34.29 -270.93,-40.9l-906.85 0.77c-159.54,89 -261.57,475.66 -354.09,654.54 -74.32,143.7 -288.87,485.41 -287.83,632.18l2920.81 20.64 -2669.69 5595.38z"/>
  <path class="fil4" d="M8830.52 20139.84c-62.17,95.18 50.05,134.33 -262.38,-148.22l-720.02 -711.01c-555.33,-547.75 -1773.99,-1919.39 -2242.82,-2555.76 -97.03,-131.72 -319.3,-466.11 -423.74,-548.83 3.59,113.45 60.26,231.36 6.89,327.75 -53.5,96.66 -81.71,7.04 -178.01,198.27 -64.27,127.67 -76.35,442.73 -44.4,519.71 65.95,158.89 25.04,-8.51 68.55,134.62 105.02,345.52 111.52,64.33 176.31,366.61 36.29,169.37 69.9,107.33 152.56,231.05 186.96,279.82 602.73,735.34 838.78,1032.32 349.73,439.97 3332.16,3444.66 3883.67,3603.51 -40.96,-196.43 -205.18,-506.65 -305.76,-680.2l-658.65 -1143.51c-75.13,-169.33 -181.73,-496.11 -290.98,-626.31z"/>
  <path class="fil0" d="M8014.26 2898.29c-660.25,-67.7 -2381.59,975.07 -2927.27,1555.68 -403.13,428.95 -659.21,718.13 -990.2,1257.89 -190.16,310.1 -667.35,1301.82 -635.9,1627.53l-58.83 408.96c57.77,-56.26 39.92,-75.34 80.71,-64.73 1.27,147.83 2.62,294.95 0.1,442.8 -4.51,265.57 60.72,224.99 64.17,412.43l136.43 -0.1c-120.63,93.89 -44.9,25.64 -29.62,67.84l176.39 -23.87c34.25,-95.16 83.66,-414.21 101.53,-524.05 45.53,-280.08 304.91,-1227.58 445.97,-1381.14 150.05,-584.54 1085.59,-1834.65 1571.31,-2087.2 753.4,-550.16 1576.5,-1000.79 2515.72,-1121.36 124.43,-106.27 208.05,-85.59 432.38,-100.95 189.7,-12.99 110.17,-77.14 327.54,-86.59 -125.35,-37.24 -39.98,10.46 -131.74,-56.13 49.08,-51.84 60.31,-61.78 101.55,-136.14 -137.39,-109.19 -37.35,-130.91 -168.4,-157.46 -359.05,-72.76 -905.06,-23.15 -1011.83,-33.42z"/>
  <path class="fil5" d="M15402.1 16568.18c39.65,62.71 302.61,-325.53 350.71,-391.5l76.08 27.98 -41.54 231.7c213.03,3.13 274.46,-19.64 278.76,207.66l333.27 5.79c-10.4,249.07 -1260.92,1747.93 -1350.14,1816.32l-129.39 183.08 11.65 87c116.61,-38.59 127.44,-145.77 209.98,-6.06l82 -125.86 106.89 -0.98c265.03,-162.26 2088.91,-2600.98 2285.19,-2996.92 -164.99,166.91 -299.31,395.53 -437.03,591.87 -281.87,401.86 -108.41,44.86 -224.24,282.7 -142.95,293.5 -134.02,91.94 -170.14,331.82l-163.75 -97.44c-91.59,38.72 -45.15,51.53 -178.92,104.25 79.92,-207.9 1023.27,-1379.42 1297.94,-1923.5l592.68 -1008.4c51.9,-77.87 219.59,-413.92 254.3,-531.9 154.3,-524.59 -58.13,-363.91 -178.22,-404.83l-12.54 -203.13c-91.34,-22 -153.29,-37.84 -196.63,-106.2 -93.62,-147.72 -16.25,-82.12 -183.86,-162.28l46.25 -98.96c-149.36,110 -487.82,885.97 -634.74,1114.22 -509.25,791.12 -733.01,1269.41 -1327.99,2074.56 -107.95,146.1 -661.33,897.24 -696.6,999z"/>
  <path class="fil2" d="M14919.85 18649.23c-136.74,94.1 -337.61,378.79 -467.19,514.15 -164.39,171.7 -343.34,341.45 -506.51,514.06 -321.81,340.39 -1174.98,1247.93 -1545.49,1518.21 -109.86,80.15 -422.43,394.01 -516.97,504.72 -101.22,118.51 -1051.42,876.71 -1170.68,918.99 211.81,-581.76 891.55,-1507.31 1078.05,-2020.13 -112.06,32.03 -83.04,-21.32 -124.95,103.94 -1.95,-47.31 -10.84,-82.31 -14.14,-111.44l-4.51 -45.75c-21.17,-235.95 -118.31,-84.3 -121.59,-474.37 -110.71,-42.89 -48.58,73.4 -61.32,-2.89 -0.25,-1.45 -1.93,3.05 -3.4,2.89 -2.95,-226.65 -3.65,-454.32 -0.62,-680.97 4.36,-326.44 -34.85,-201.55 -60.64,-287.02 -38.57,-127.69 46.46,-180.61 -90.24,-245.46 8.03,552.82 -371.55,1024.58 -947.89,977.6l124.14 65.7c-93.46,216.64 -62.03,2877.7 -40.75,3291.62 370.64,-180.61 2179.85,-1786.01 2579.26,-2156.96 382.7,-355.42 2148.88,-2094.08 2305.97,-2432.78l-106.89 0.98 -82 125.86c-82.54,-139.71 -93.36,-32.53 -209.98,6.06l-11.65 -87z"/>
  <path class="fil6" d="M14064.66 18163.43c-383.34,349.42 -981.09,1078.13 -1473.75,1520.56 -117.71,105.69 -398.43,363.23 -496.87,483.07 -36.2,-26.41 -37.62,74.59 -27.69,-65.18 -115.21,112.37 -199.31,344.96 -275.29,497.33 -186.5,512.82 -866.24,1438.37 -1078.05,2020.13 119.26,-42.27 1069.46,-800.48 1170.68,-918.99 94.54,-110.71 407.11,-424.57 516.97,-504.72 370.51,-270.27 1223.68,-1177.82 1545.49,-1518.21 163.17,-172.61 342.13,-342.36 506.51,-514.06 129.58,-135.37 330.45,-420.06 467.19,-514.15l129.39 -183.08 -96.45 -199.77c-154.3,-0.41 -345.75,-15.42 -458.37,-118.52 -16.86,-15.42 -7.1,-75.29 -190.42,-144.69 -244.19,280.81 -191.77,231.43 -239.35,160.28z"/>
  <path class="fil7" d="M3460.89 7339.39c-151.04,184.22 -199.43,992.29 -201.16,1263.12 -2.91,450.95 10.65,910.01 122.23,1344.75l90.3 25.43c30.23,115.13 93.58,260.22 173.65,339.71 127.25,126.3 108.14,90.63 212.41,93.65l55.01 -211.97c156.4,-42.83 15.24,56.53 175.79,-19.22 33.26,253.31 75.13,114.86 204.58,439.85 344.52,864.98 640.47,1006.95 757.22,1234.37 136.08,166.9 402.29,425.61 597.25,529.63 169.5,22.56 267.01,77.12 485.98,133 0.54,-381.1 -135.02,-136.2 -36.64,-324.78 -133.05,-49.88 -120.55,-59.06 -203.44,-175.35 -80.8,-113.33 -123.71,-130.83 -179.71,-227.83 -309.71,-536.44 -141.29,-200.6 -338.02,-445.91 -69.38,-86.52 -81.21,-151.67 -146.81,-227.34 -403.29,-465.07 -685.95,-1540.76 -702.64,-2132.4 -18.54,-657.66 163.17,-1178.07 -69.13,-1396.92l49.08 -161.32 -184.99 -18.81c-85.92,-282.95 46.81,-616.78 55.88,-723.52 -141.06,153.56 -400.43,1101.07 -445.97,1381.14 -17.87,109.84 -67.28,428.89 -101.53,524.05l-176.39 23.87c-15.28,-42.2 -91.01,26.05 29.62,-67.84l-136.43 0.1c-3.45,-187.44 -68.69,-146.87 -64.17,-412.43 2.53,-147.85 1.18,-294.97 -0.1,-442.8 -40.79,-10.61 -22.94,8.47 -80.71,64.73l58.83 -408.96z"/>
  <path class="fil2" d="M12050.95 3371.25c-45.28,77.12 -1359.15,53.37 -1556.47,57.34 -419.17,8.43 -757.49,-34.25 -1147.22,75.52 -252.85,71.23 -61.43,106.85 -253.3,157.87 6.98,6.21 19.16,4.63 22.4,16.84 3.11,11.79 17.31,12.64 21.38,16.59l36.29 33.63c67.94,89.99 10.55,193.21 205.1,241.97 87.4,21.92 447.11,51.92 552.76,54.97l-938.9 14.84c78.55,89.99 -30.31,32.24 113.39,56.86l2763.71 -4.15c16.23,257.64 -290.61,592.1 -309.02,854.66l1351.87 10.26c88.77,-31.47 824.75,-1613.62 958.52,-1931.92 134.21,-319.32 101.39,-219.76 44.78,-286.11l-4.75 56.2c-107.64,0.42 -145.32,14.2 -224.74,81.23 -234.54,197.96 -291.46,220.71 -551.97,350.4 -354.96,176.72 -621.08,184.13 -1083.86,142.99z"/>
  <path class="fil7" d="M3831.48 15962.21c9.63,-157.04 -77.76,-273.81 -80.5,-425.42 -1.83,-102.09 212.89,-243.98 227.42,-499.66 6.93,-122.02 -2.64,-147.1 -42.89,-245.44 -283.93,-693.51 -118.72,-241.41 -241.62,-469.35l-170.91 -374.75c-66.39,-138.07 -23.65,-11.5 -63.92,-202.4 -53.52,-253.72 -306.64,-475.58 -313.76,-754.25 -35.73,-162.81 -382.78,-869.84 -491.73,-956.32l-579.89 -1169.66c-35.44,137.74 -14.35,59.7 -106.66,104.07l4.71 -169.83c-70.13,271.39 102.7,556.62 -223.72,706.61 -148.74,-70.44 -245.98,-191.67 -405.41,-212.02 4.84,207.07 406.01,1068.38 524.01,1277.84l574.18 1191.27c228.39,368.08 1140.43,2023.87 1390.69,2199.32z"/>
  <path class="fil5" d="M15006.06 13531.32c-207.68,280.6 -889.25,799.77 -1235.14,970.29 -424.53,209.32 -1170.41,524.53 -1633.09,550.48l-243.09 118.76c58.5,276.66 71.06,228.56 11.81,290.07 -26.97,28.02 -12.33,6.77 -45.9,50.26l305.27 129.25c163.33,16.07 248.65,-83.87 395.03,-9.18 325.78,9.22 1219.4,-371.28 1537.56,-531.07 800.98,-402.32 1661.2,-1193 2136.67,-1949.4 204.89,-325.98 599.3,-1061.4 657.74,-1417.09 -170.25,109.05 -101.51,130.78 -170.41,255.32 -47.19,-102.18 -62.46,-129.31 -170.18,-171.55 -182.91,81.92 -15.05,0.37 -121.61,109.36 -105.85,108.28 -54.87,45.42 -60.6,22.71 -142.62,-33.59 14.72,-39.86 -177.6,-167.13 -288.8,545.2 -710.49,1370.72 -1186.46,1748.91z"/>
  <path class="fil3" d="M4377.74 6677.54c-9.07,106.74 -141.79,440.57 -55.88,723.52l184.99 18.81 -49.08 161.32c232.3,218.85 50.59,739.26 69.13,1396.92 16.69,591.64 299.35,1667.33 702.64,2132.4 65.6,75.67 77.43,140.83 146.81,227.34 196.72,245.31 28.3,-90.53 338.02,445.91 55.99,96.99 98.9,114.49 179.71,227.83 82.89,116.29 70.39,125.47 203.44,175.35 -98.38,188.58 37.18,-56.32 36.64,324.78 -218.97,-55.88 -316.48,-110.44 -485.98,-133 154.8,226.55 791.82,497.19 1063.04,588.17 440.24,147.66 911.19,238.07 1388.38,244.44l-24.58 155.96 375.2 -779.84c-1621.16,-60.7 -2919.82,-724.92 -3542.79,-2242.8 -307.2,-748.5 -364.24,-1700.19 -201.61,-2496.02 234,-1145 576.18,-1349.19 891.13,-1977.03l40.85 -127.86c-75.61,-40.38 7.1,-21.05 -76.46,-12.81 -41.56,4.11 -12.71,12.25 -18.37,12.81 -120.65,-282.45 -214.49,-70.5 -205.77,-464.9 4.13,20.47 219.82,-220.28 287.52,-288.39 115.77,-116.48 312.78,-236.35 324.36,-400.11 -485.71,252.54 -1421.25,1502.66 -1571.31,2087.2z"/>
  <path class="fil8" d="M7783.35 175.04c66.89,125.28 -13.22,61.9 156.75,81.27 202.38,23.04 677,-105.6 885.41,14.93 204.6,118.33 72.18,66.64 330.05,87.85 256.73,12.71 878.14,-69.07 1065.26,5.92 -129.81,0.23 -272.42,-7.52 -394.72,14.53 -46.04,8.32 -115.86,26.9 -160.32,42.78l-159.56 80.11c12.77,152.06 68.42,147.25 66.3,340 -1.14,105.81 -23.35,122.79 -22.79,194.25 1.22,154.74 46.4,37.32 25.87,106 -73.28,31.18 -113.59,43.33 -172.2,70.12 -101.12,46.23 -77.06,31.55 -208.55,33.03 7.35,6.27 45.86,71.35 53.52,82.06 345.71,-36.76 727.1,-44.11 1075.95,-44.69 238.15,-0.41 941.35,37.7 1115.07,-2.1l416.41 -3.82 -3.67 -79.94c-7.08,-14.95 -145.75,-128.21 -144.48,-389.74 0.95,-195.93 66.78,-58.69 -7.08,-202.78 118.85,-87.83 101.37,-50.86 143.09,-215.94 191.96,-3.7 351.27,-22.77 557.64,-13.1 177.14,8.3 313.11,52.23 508.94,30.18 214.11,-24.14 564.86,-96.7 689.92,-76.91 128.21,20.32 185.96,54.35 242.09,-45.15 -468.68,-41.39 -927.88,-145.31 -1412.84,-181.79 -524.01,-39.44 -1032.9,-92.21 -1560.56,-100.37 -1093,-16.94 -2014.09,94.29 -3085.5,173.3z"/>
  <path class="fil9" d="M11439.38 1281.1c91.65,50.84 1369.7,142.68 1633.97,184.43 467.44,73.84 1092.5,165.62 1532.68,311.18l-16.13 -79.38c-171.16,-27.8 -443.83,-173.01 -459.07,-347.88l175.33 -584.89c601.25,-9.09 751.76,188.33 1083.74,76.83 146.64,-49.24 222.58,3.18 403.94,-43.59 -429.78,-226.59 -1435.26,-398.2 -1951.6,-513.92 -56.13,99.5 -113.87,65.47 -242.09,45.15 -125.07,-19.8 -475.82,52.77 -689.92,76.91 -195.84,22.05 -331.8,-21.88 -508.94,-30.18 -206.37,-9.67 -365.68,9.4 -557.64,13.1 -41.71,165.08 -24.23,128.11 -143.09,215.94 73.86,144.09 8.03,6.85 7.08,202.78 -1.27,261.53 137.39,374.79 144.48,389.74l3.67 79.94 -416.41 3.82z"/>
  <path class="fil9" d="M8464.76 3468.97c-939.23,120.57 -1762.32,571.21 -2515.72,1121.36 -11.58,163.75 -208.59,283.63 -324.36,400.11 -67.7,68.11 -283.39,308.86 -287.52,288.39 -8.72,394.39 85.13,182.45 205.77,464.9 5.65,-0.56 -23.19,-8.7 18.37,-12.81 83.56,-8.24 0.85,-27.57 76.46,12.81l-40.85 127.86c228.06,-231.15 393.64,-447.86 651.45,-664.86 232.92,-196.05 512.01,-387.87 786.94,-539.26 710.4,-391.15 1260.96,-505.68 2071.09,-569.8 -143.7,-24.62 -34.85,33.13 -113.39,-56.86l938.9 -14.84c-105.66,-3.05 -465.36,-33.05 -552.76,-54.97 -194.54,-48.76 -137.16,-151.98 -205.1,-241.97l-36.29 -33.63c-4.07,-3.96 -18.27,-4.8 -21.38,-16.59 -3.24,-12.21 -15.42,-10.63 -22.4,-16.84 191.86,-51.01 0.44,-86.63 253.3,-157.87 389.72,-109.77 728.05,-67.09 1147.22,-75.52 197.32,-3.97 1511.19,19.78 1556.47,-57.34 -482.61,-59.29 -1315.71,-2.91 -1828.73,10.38 -303.11,7.87 -583.5,5.65 -886.22,28.34 -232.26,17.4 -663.78,68.96 -871.23,59z"/>
  <path class="fil3" d="M8014.26 2898.29c106.77,10.26 652.78,-39.34 1011.83,33.42 131.05,26.55 31.01,48.27 168.4,157.46 -41.23,74.36 -52.46,84.3 -101.55,136.14 91.76,66.58 6.39,18.89 131.74,56.13 -217.37,9.45 -137.84,73.61 -327.54,86.59 -224.33,15.36 -307.96,-5.33 -432.38,100.95 207.45,9.96 638.97,-41.6 871.23,-59 302.73,-22.69 583.11,-20.47 886.22,-28.34 513.02,-13.29 1346.12,-69.67 1828.73,-10.38 462.77,41.14 728.9,33.73 1083.86,-142.99 260.51,-129.7 317.43,-152.44 551.97,-350.4 79.42,-67.03 117.1,-80.8 224.74,-81.23l4.75 -56.2c-719.17,-28.83 -5622.37,-87.04 -5902,157.87z"/>
  <path class="fil2" d="M11432.59 6513.23c-32.49,147.62 -287.16,592.28 -376.26,781.48 -128.75,273.42 -238.15,535.63 -357.83,804.34l758.84 3.09c141.2,-239.08 388.1,-1000.79 575.43,-1103.23 164.64,-65.7 1090.09,-13.14 1326.15,11.73 27.94,-32.63 9.65,-40.46 34.75,-82.56l-246.16 -22.81c-59.16,-121.3 -2.97,-40.48 -18.95,-108.9 -1.04,-4.46 -3.74,-14.28 -4.94,-18.75l-25.06 -96.93c-0.37,-335.3 38.07,-338.13 627.53,-269.85 159.78,18.5 359.16,115.32 533.62,114.09l29.71 -173.59 138.24 -77.41c-42.08,-121.21 -47.91,-37.16 -9.86,-180.38 231.92,-67.65 283.51,-26.84 448.09,-18.14 -282.28,-187.12 -947.77,-339.41 -1300.92,-380.54l-170.12 78.76c62.22,114.84 -5.87,43.99 91.53,136.85 -58.06,83.68 -145.67,231.11 -170.56,340.62 -166.22,1.41 -119.72,22.61 -191.15,40.42l-622.28 12.33c-1255.44,28.94 -698.61,-17.71 -1069.83,209.38z"/>
  <path class="fil5" d="M13358.93 7010.63c606.5,137.43 902.03,213.93 1417.49,578.09 192.19,135.77 351.75,304.27 487.93,497.29 115.19,163.27 269.23,550.89 386.64,645.3l288.76 563.72c37.6,-48.81 40.58,-15.92 53.77,-147.25 3.2,-31.93 -1.47,-111.35 -7.16,-145.85l89.53 95.26c101.35,-7.25 114.86,26.34 149.78,-65.62 3.26,194.91 17.04,147.39 70.58,200.37 2.99,-246.48 79.63,-309.63 2.06,-579.08 -215.79,-749.54 -940.62,-1597.3 -1639.53,-1935.23 -132.82,-64.21 -294.47,-107.33 -399.06,-192.71 -174.46,1.23 -373.85,-95.58 -533.62,-114.09 -589.46,-68.28 -627.89,-65.45 -627.53,269.85l25.06 96.93c1.2,4.48 3.9,14.3 4.94,18.75 15.98,68.42 -40.21,-12.41 18.95,108.9l246.16 22.81c-25.1,42.1 -6.81,49.93 -34.75,82.56z"/>
  <path class="fil0" d="M8715.05 18086.22c-337.67,425.63 -193.1,1360.69 19.87,1819.12 218.03,105.66 171.89,525.79 454.71,655.27l26.39 -216.75c187.42,-91.71 17.98,15.42 153.02,-143.03l45.61 -27.13c1.74,-141.27 9.3,-186.27 26.8,-311.2 25.55,-182.47 2.06,-118.56 58.37,-279.01 148.1,-421.97 -116.07,-374.79 110,-1113.86 60.8,-198.75 66.51,-275.33 241.8,-402.07 -68.4,-190.07 -31.26,-448.98 -32.14,-656.31 -98.77,36.45 -367.69,-15.59 -664.05,267.57l-135.48 94.29c-80.53,55.84 -233.94,313.71 -304.89,313.11z"/>
  <path class="fil1" d="M11181.44 18474.75l128.21 383.4c136.7,64.85 51.67,117.77 90.24,245.46 25.8,85.47 65,-39.42 60.64,287.02 -3.03,226.65 -2.33,454.32 0.62,680.97 1.47,0.15 3.14,-4.34 3.4,-2.89 12.73,76.29 -49.39,-40 61.32,2.89 3.28,390.07 100.43,238.42 121.59,474.37l4.51 45.75c3.3,29.13 12.19,64.13 14.14,111.44 41.91,-125.26 12.89,-71.91 124.95,-103.94 75.98,-152.37 160.08,-384.96 275.29,-497.33 38.34,-158.43 160.35,-436.22 220.22,-613.94 88.35,-262.17 101.62,-491.27 69.44,-772.21 -43.59,-380.58 -260.78,-921.42 -575.16,-1125.67 -71.85,35.96 -52.11,-20.51 -127.81,-70.93 -92.38,-61.53 -85.67,-35.87 -202.9,-49.14l-189.1 33.15c-3.43,169.62 13.26,405.53 -1.39,563.57 -17.91,193.46 -53.19,80.48 -67.45,207.34 -11.5,102.36 46.81,112.56 -10.77,200.7z"/>
  <path class="fil2" d="M14606.03 1776.71c330.11,101.72 634.38,186.88 960.28,294.72 274.77,90.91 668.64,300.76 907.81,349.75 62.59,-57.92 -173.94,-108.41 -324.24,-185.51 -135.48,-69.5 -234.23,-159.68 -349.84,-232.98l138.03 -140.15 -70.12 -270.2 114.55 -80.3c77.54,-32.74 -2.35,63.21 93.11,-53.72 -128.36,-77.25 -78.03,110.15 -136.53,-104.83 203.09,-183.49 507.44,13.02 724.65,87.21 179.98,61.45 160.91,14.88 359.68,116.33 322.16,164.41 365.65,114.45 437.98,38.01l219.05 23.11c-166.47,-177.2 -1674.09,-828.34 -1886.61,-820.33 -181.37,46.77 -257.31,-5.65 -403.94,43.59 -331.98,111.5 -482.49,-85.92 -1083.74,-76.83l-175.33 584.89c15.24,174.86 287.91,320.07 459.07,347.88l16.13 79.38z"/>
  <path class="fil4" d="M4254.95 11905.45c173.19,370.84 1078.84,1102.74 1468.1,1334.76 472.83,281.85 1582.4,668.97 2127.58,645.76 71.76,-187.87 174.17,-314.11 224.37,-518.69l24.58 -155.96c-477.19,-6.37 -948.14,-96.78 -1388.38,-244.44 -271.22,-90.97 -908.24,-361.61 -1063.04,-588.17 -194.97,-104.02 -461.17,-362.73 -597.25,-529.63l-67.94 23.25 100.91 134.17c-85.36,41.08 -175.83,54 -246.74,94 -156.15,88.06 -56.49,54.29 -128.65,210.73l-245.11 -197.67c-88.35,-95.18 -68.96,-131.76 -208.44,-208.13z"/>
  <path class="fil3" d="M5578.49 1975.93c574.81,-110.36 1140.64,-305.91 1754.78,-410.64 670.01,-114.26 1240.81,-175.98 1915.09,-237.4 -7.66,-10.71 -46.17,-75.79 -53.52,-82.06 131.49,-1.49 107.43,13.2 208.55,-33.03 58.62,-26.78 98.92,-38.94 172.2,-70.12 20.53,-68.69 -24.66,48.74 -25.87,-106 -0.56,-71.47 21.65,-88.44 22.79,-194.25 2.12,-192.75 -53.52,-187.95 -66.3,-340l159.56 -80.11c44.45,-15.88 114.28,-34.46 160.32,-42.78 122.31,-22.05 264.91,-14.3 394.72,-14.53 -187.12,-75 -808.53,6.79 -1065.26,-5.92 -363.81,-63.71 -1079.73,124.81 -1485.81,149.57 -35.02,90.34 -4.51,-48.33 -1.66,30.06 3.28,89.51 29.94,-63.67 1.66,25.04 -163.08,15.98 -202.9,41.48 -287.99,296.55 -25.91,77.72 -30.68,192.63 -54.1,288.97 130.31,94.95 52.29,-17.5 99.54,102.11l-508.15 202.61 96.14 53.52 -1101.65 301.97c-129.6,39.65 -277.45,32.49 -335.05,166.43z"/>
  <path class="fil10" d="M15402.1 16568.18l-842.77 999.64c-55.3,82.75 -375.68,398.37 -494.67,595.61 47.58,71.16 -4.84,120.53 239.35,-160.28 183.31,69.4 173.55,129.27 190.42,144.69 112.62,103.11 304.08,118.12 458.37,118.52l96.45 199.77c89.22,-68.4 1339.74,-1567.25 1350.14,-1816.32l-333.27 -5.79c-4.3,-227.31 -65.74,-204.54 -278.76,-207.66l41.54 -231.7 -76.08 -27.98c-48.1,65.97 -311.06,454.21 -350.71,391.5z"/>
  <path class="fil10" d="M9606.79 15138.59c53.37,42.99 -68.36,36.2 66.28,36.35 -28.09,105.83 -68.44,119.89 -70.17,235.49 -3.09,204.91 16.98,62.73 69.83,198.19l-201.97 1.6c153.93,152.71 193.7,72.93 335.6,130.14 -133.27,0.29 -484.17,-43.8 -539.97,59.79 483.24,26.34 3027.95,52.21 3294.57,-168.9 -146.39,-74.69 -231.7,25.26 -395.03,9.18l-305.27 -129.25c33.57,-43.49 18.93,-22.25 45.9,-50.26 59.25,-61.51 46.69,-13.41 -11.81,-290.07l243.09 -118.76c-211.47,9.72 -397.98,60.83 -622.28,67.51 -203.96,6.08 -416.43,22.13 -611.47,24.81 -430.13,5.96 -866.25,-5.15 -1297.29,-5.83z"/>
  <path class="fil3" d="M10698.5 8099.04c119.68,-268.71 229.08,-530.92 357.83,-804.34 89.1,-189.2 343.77,-633.86 376.26,-781.48 5.6,-169.65 10.05,-87.11 44.26,-220.09 0.04,-0.08 57.11,-416.22 257.1,-296.78 -14.82,-125.53 -36.47,-24.23 -11.77,-181.93 121.23,-51.36 258.16,-119.84 381.16,-83.08 -143.43,-3.97 -169.73,36.1 -230.3,-62.74l-730.73 1.33 -1127.54 2409.64 683.73 19.47z"/>
  <path class="fil3" d="M4254.95 11905.45c139.48,76.37 120.09,112.95 208.44,208.13l245.11 197.67c72.16,-156.44 -27.49,-122.67 128.65,-210.73 70.91,-40 161.38,-52.92 246.74,-94l-100.91 -134.17 67.94 -23.25c-116.75,-227.42 -412.7,-369.39 -757.22,-1234.37 -129.45,-324.99 -171.31,-186.54 -204.58,-439.85 -160.55,75.75 -19.39,-23.62 -175.79,19.22l-55.01 211.97c-104.27,-3.03 -85.16,32.65 -212.41,-93.65 -80.07,-79.49 -143.41,-224.59 -173.65,-339.71l-90.3 -25.43c142.3,685.87 469.64,1388.13 872.99,1958.19z"/>
  <path class="fil9" d="M10614.28 11162.7c126.63,-93.64 162.13,-256.31 231.49,-410.54 193.64,-430.51 589.86,-993.98 485.17,-1351.35 -119.32,-42.64 -481.6,-98.57 -610.47,-106.54 68.05,-13.58 92.15,-174 29.21,-288.22 -42.12,-76.44 10.17,-63.92 -101.66,-80.65l127.42 -12.99 -49.84 -72.89 760.21 -27.24 -3360.27 20.95 906.85 -0.77c132.96,6.62 138.65,33.84 270.93,40.9 1.52,4.13 0.6,7.89 0.58,13.18 -0.14,59.93 -13.8,35.44 63.77,80.94l-99.11 28.4c155.53,124.72 -9.55,132.84 196.15,329.74 111.31,106.54 229.41,91.61 416.56,95 -111.12,75.79 -77.68,7.58 -195.28,57.57 226.9,1.62 1463.1,-66.66 1436.34,251.13l-15.65 59c-5.21,91.96 23.94,111.56 -11.36,230.89 -20.05,67.8 -132.46,316.02 -168.71,379.67 -96.37,169.17 -289.34,569.93 -312.34,763.8z"/>
  <path class="fil9" d="M11432.59 6513.23c371.22,-227.09 -185.61,-180.44 1069.83,-209.38l622.28 -12.33c71.43,-17.81 24.93,-39.01 191.15,-40.42 24.89,-109.51 112.5,-256.94 170.56,-340.62 -97.4,-92.86 -29.31,-22.01 -91.53,-136.85l170.12 -78.76c-578.73,-41.19 -1115.44,-21.46 -1691.95,-26.26 60.56,98.84 86.86,58.77 230.3,62.74 -123,-36.76 -259.93,31.72 -381.16,83.08 -24.7,157.69 -3.05,56.4 11.77,181.93 -199.99,-119.43 -257.06,296.71 -257.1,296.78 -34.21,132.98 -38.67,50.44 -44.26,220.09z"/>
  <path class="fil4" d="M7734.75 15735.96c87.52,89.91 94.64,50.24 377.43,52.67l1154.2 11.52c55.8,-103.59 406.7,-59.5 539.97,-59.79 -141.91,-57.21 -181.67,22.57 -335.6,-130.14l201.97 -1.6c-52.85,-135.47 -72.91,6.71 -69.83,-198.19 1.74,-115.59 42.08,-129.66 70.17,-235.49 -134.64,-0.15 -12.91,6.64 -66.28,-36.35l-788.75 -23.23 2.87 -65.77c-140.23,64.58 -150.42,116.34 -273.84,217.27 -96.45,78.89 -174.11,108.18 -270.39,171.87 -148.12,98 -372.48,243.8 -541.94,297.23z"/>
  <path class="fil9" d="M10234.32 18100.67c162.32,-58.02 363.77,-62.09 514.81,27.57l58.08 -739.84c57.69,-34.56 23.62,-13.76 59.1,-42.85 3.82,-3.13 15.34,-7.04 18.21,-18.04 2.91,-11.19 11.63,-12.93 17.44,-19.41 152.93,14.61 424.78,87.71 548.19,161.9 117.23,13.27 110.52,-12.39 202.9,49.14 75.69,50.42 55.95,106.89 127.81,70.93 -152.56,-215.11 -435.97,-371.4 -693.32,-465.38 -421.37,-153.89 -549.67,-77.31 -946.94,-93.71l334.43 25.55c-20.59,150.8 -47.98,172.66 -106.49,222.08 66.57,158.79 43.43,490.56 31.93,682.96 -85.55,100.99 -58.15,75.56 -166.14,139.11z"/>
  <path class="fil2" d="M10749.13 18128.24c246.66,80.77 271.61,193.64 432.31,346.51 57.57,-88.14 -0.73,-98.34 10.77,-200.7 14.26,-126.86 49.55,-13.87 67.45,-207.34 14.64,-158.04 -2.05,-393.95 1.39,-563.57l189.1 -33.15c-123.41,-74.19 -395.26,-147.29 -548.19,-161.9 -5.81,6.48 -14.53,8.22 -17.44,19.41 -2.87,11 -14.39,14.91 -18.21,18.04 -35.48,29.1 -1.41,8.3 -59.1,42.85l-58.08 739.84z"/>
  <path class="fil11" d="M32133.2 8283.46l2535.87 0 0 4866.11c-651.1,491.17 -1405.01,868.13 -2261.71,1130.86 -856.7,262.71 -1719.12,394.09 -2587.25,394.09 -1245.1,0 -2364.53,-265.59 -3358.3,-796.76 -993.79,-531.15 -1773.39,-1267.92 -2338.81,-2210.29 -565.44,-942.39 -848.14,-2007.55 -848.14,-3195.52 0,-1187.97 282.7,-2253.15 848.14,-3195.54 565.42,-942.37 1350.73,-1679.14 2355.95,-2210.29 1005.21,-531.17 2136.05,-796.74 3392.57,-796.74 1050.88,0 2004.69,177.04 2861.4,531.15 856.7,354.11 1576.34,868.13 2158.91,1542.08l-1781.96 1644.88c-856.7,-902.39 -1890.47,-1353.59 -3101.28,-1353.59 -765.33,0 -1444.99,159.91 -2038.96,479.75 -593.99,319.84 -1056.61,771.04 -1387.88,1353.59 -331.26,582.57 -496.89,1250.81 -496.89,2004.71 0,742.48 165.62,1404.99 496.89,1987.56 331.26,582.55 791.03,1036.6 1379.31,1362.16 588.26,325.55 1259.36,488.32 2013.26,488.32 799.59,0 1519.23,-171.33 2158.89,-514.02l0 -3512.5zm5106 -5808.48l2775.73 0 0 11993.92 -2775.73 0 0 -11993.92zm13724.44 5808.48l2535.87 0 0 4866.11c-651.1,491.17 -1405.01,868.13 -2261.71,1130.86 -856.7,262.71 -1719.12,394.09 -2587.25,394.09 -1245.1,0 -2364.53,-265.59 -3358.3,-796.76 -993.79,-531.15 -1773.39,-1267.92 -2338.81,-2210.29 -565.44,-942.39 -848.14,-2007.55 -848.14,-3195.52 0,-1187.97 282.7,-2253.15 848.14,-3195.54 565.42,-942.37 1350.73,-1679.14 2355.95,-2210.29 1005.21,-531.17 2136.05,-796.74 3392.57,-796.74 1050.88,0 2004.69,177.04 2861.4,531.15 856.7,354.11 1576.34,868.13 2158.91,1542.08l-1781.96 1644.88c-856.7,-902.39 -1890.47,-1353.59 -3101.28,-1353.59 -765.33,0 -1444.99,159.91 -2038.96,479.75 -593.99,319.84 -1056.61,771.04 -1387.88,1353.59 -331.26,582.57 -496.89,1250.81 -496.89,2004.71 0,742.48 165.62,1404.99 496.89,1987.56 331.26,582.55 791.03,1036.6 1379.31,1362.16 588.26,325.55 1259.36,488.32 2013.26,488.32 799.59,0 1519.23,-171.33 2158.89,-514.02l0 -3512.5zm9046.85 6391.05c-948.1,0 -1864.77,-128.52 -2750.03,-385.52 -885.28,-257.02 -1596.33,-591.14 -2133.21,-1002.36l942.39 -2090.36c514.02,376.95 1125.15,679.64 1833.34,908.1 708.22,228.46 1416.43,342.69 2124.65,342.69 788.17,0 1370.72,-117.08 1747.68,-351.25 376.95,-234.17 565.44,-545.43 565.44,-933.8 0,-285.57 -111.39,-522.6 -334.12,-711.07 -222.75,-188.49 -508.31,-339.83 -856.7,-454.05 -348.4,-114.24 -819.58,-239.89 -1413.58,-376.95 -913.82,-217.04 -1662.01,-434.08 -2244.58,-651.1 -582.55,-217.04 -1082.29,-565.44 -1499.24,-1045.19 -416.93,-479.75 -625.39,-1119.43 -625.39,-1919.03 0,-696.79 188.47,-1327.89 565.42,-1893.33 376.95,-565.42 945.25,-1013.76 1704.86,-1345.02 759.62,-331.26 1687.71,-496.89 2784.3,-496.89 765.33,0 1513.52,91.38 2244.58,274.13 731.04,182.77 1370.72,445.5 1919.03,788.17l-856.72 2107.51c-1108.01,-628.26 -2216,-942.39 -3324.02,-942.39 -776.75,0 -1350.75,125.66 -1721.99,376.95 -371.24,251.31 -556.85,582.57 -556.85,993.79 0,411.22 214.17,716.78 642.54,916.67 428.35,199.91 1082.29,396.94 1961.86,591.14 913.82,217.02 1662.01,434.06 2244.56,651.09 582.57,217.04 1082.31,559.73 1499.24,1028.06 416.93,468.33 625.4,1102.3 625.4,1901.89 0,685.37 -191.34,1310.76 -574,1876.19 -382.66,565.42 -956.65,1013.76 -1721.98,1345.02 -765.33,331.26 -1696.28,496.9 -2792.87,496.9zm6990.74 -12199.54l5448.66 0c1302.19,0 2453.04,248.45 3452.52,745.34 999.5,496.89 1776.25,1196.53 2330.25,2098.95 554.02,902.39 831.02,1953.29 831.02,3152.68 0,1199.39 -277.01,2250.27 -831.02,3152.68 -554,902.39 -1330.75,1602.04 -2330.25,2098.93 -999.48,496.89 -2150.33,745.34 -3452.52,745.34l-5448.66 0 0 -11993.92zm5311.58 9715.07c1199.39,0 2156.06,-334.12 2869.98,-1002.34 713.91,-668.24 1070.87,-1573.49 1070.87,-2715.77 0,-1142.28 -356.96,-2047.55 -1070.87,-2715.77 -713.93,-668.24 -1670.59,-1002.36 -2869.98,-1002.36l-2535.85 0 0 7436.22 2535.85 0zm16568.74 -291.29l-5568.6 0 -1062.32 2570.13 -2844.27 0 5345.84 -11993.92 2741.47 0 5363 11993.92 -2912.8 0 -1062.32 -2570.13zm-873.84 -2107.49l-1901.89 -4591.96 -1901.89 4591.96 3803.79 0z"/>
  <path class="fil12" d="M24110.66 19070.5l0 -2454.31 486.76 0 580.45 1737.33c53.7,161.67 92.54,282.8 117.12,363.35 27.98,-89.14 71.97,-220.53 131.39,-393.64l590.71 -1707.04 434.78 0 0 2454.31 -311.93 0 0 -2053.26 -716.42 2053.26 -292.5 0 -708.43 -2090.96 0 2090.96 -311.93 0zm4469.87 -2454.31l325.63 0 0 1417.4c0,246.81 -27.98,442.76 -83.41,587.88 -55.97,144.53 -156.53,262.79 -301.65,353.63 -145.67,90.84 -335.91,136.55 -572.44,136.55 -229.08,0 -417.05,-39.42 -562.72,-118.83 -146.25,-79.42 -250.23,-193.68 -312.51,-343.92 -62.26,-150.24 -93.69,-355.34 -93.69,-615.29l0 -1417.4 325.65 0 0 1416.84c0,213.09 19.99,370.76 59.41,471.32 39.42,101.12 106.83,179.38 203.38,233.65 95.99,54.85 213.66,82.27 352.49,82.27 237.67,0 407.34,-54.27 508.46,-162.25 101.12,-108.55 151.4,-316.5 151.4,-625l0 -1416.84zm761.53 1665.91l305.08 -27.42c14.28,123.41 47.98,224.53 101.12,303.94 53.14,78.84 135.39,142.82 246.79,191.94 111.41,48.56 237.09,73.14 376.49,73.14 123.98,0 233.09,-18.29 327.93,-55.43 94.85,-37.12 165.12,-87.98 211.39,-152.52 46.27,-64.56 69.69,-134.83 69.69,-210.25 0,-76.56 -22.27,-143.4 -66.84,-201.1 -44.57,-57.11 -118.25,-105.12 -221.09,-144.53 -65.7,-25.14 -211.39,-65.12 -437.05,-119.39 -225.65,-54.27 -383.34,-105.12 -473.6,-153.12 -117.12,-61.7 -203.96,-138.24 -261.09,-229.08 -57.69,-90.84 -86.26,-193.1 -86.26,-305.64 0,-124.54 35.42,-240.52 105.69,-347.93 70.27,-107.97 172.53,-189.66 307.94,-245.65 134.83,-55.99 285.07,-83.99 450.17,-83.99 181.67,0 342.2,29.13 481.04,87.98 138.82,58.27 245.65,144.53 320.5,258.79 74.84,113.7 114.82,242.82 120.53,386.77l-311.93 24c-16.55,-154.82 -73.13,-271.93 -169.67,-350.79 -96.55,-79.4 -239.36,-118.81 -427.89,-118.81 -196.53,0 -339.93,35.98 -429.63,107.97 -89.7,71.99 -134.83,158.81 -134.83,260.51 0,87.98 31.99,160.53 95.41,217.66 62.84,56.57 225.67,115.4 489.61,174.83 263.93,59.99 445.04,111.96 543.29,156.53 142.26,65.7 247.95,148.55 315.94,249.65 67.97,100.56 101.68,216.54 101.68,347.93 0,130.83 -37.12,253.08 -111.96,368.48 -74.84,115.4 -181.67,205.1 -321.65,269.08 -139.96,64 -297.07,95.99 -472.46,95.99 -221.67,0 -407.34,-32.57 -557.01,-97.13 -150.26,-64.56 -267.38,-161.67 -352.51,-291.92 -85.69,-129.7 -130.26,-276.53 -134.83,-440.49zm2447.46 788.4l0 -2454.31 325.65 0 0 2454.31 -325.65 0zm883.81 0l0 -2454.31 325.65 0 0 1216.87 1219.15 -1216.87 439.91 0 -1029.48 995.2 1074.03 1459.11 -428.47 0 -873.53 -1238.58 -401.61 388.49 0 850.09 -325.65 0zm2348.05 0l0 -342.78 342.78 0 0 342.78 -342.78 0zm2555.45 0l-947.79 -2454.31 351.93 0 637.56 1783.6c50.84,142.84 94.27,276.51 128.54,401.63 37.72,-134.27 81.71,-267.94 131.97,-401.63l661.56 -1783.6 331.36 0 -956.92 2454.31 -338.21 0zm1594.5 0l0 -2454.31 1772.18 0 0 287.95 -1446.53 0 0 754.1 1353.98 0 0 287.95 -1353.98 0 0 836.39 1504.8 0 0 287.93 -1830.45 0zm2286.35 0l0 -2454.31 1087.75 0c218.82,0 385.06,22.28 498.76,66.28 113.68,43.99 204.52,121.69 272.49,233.09 67.99,111.41 101.7,234.79 101.7,369.62 0,174.25 -56.55,321.08 -169.11,440.47 -112.54,119.41 -286.21,194.81 -521.58,227.38 86.26,41.14 151.38,82.27 195.95,122.27 94.83,86.82 184.53,195.95 268.52,326.77l424.47 668.43 -405.62 0 -324.51 -510.74c-94.25,-147.97 -172.53,-260.51 -233.65,-338.79 -61.7,-78.26 -116.56,-132.53 -165.1,-163.96 -48,-30.85 -97.71,-52.56 -147.97,-65.12 -36.56,-7.43 -96.55,-11.44 -180.54,-11.44l-375.91 0 0 1090.05 -325.65 0zm325.65 -1371.13l696.99 0c148.53,0 263.93,-15.42 347.34,-46.27 83.41,-30.27 146.83,-79.42 189.68,-147.39 43.41,-67.41 65.12,-140.54 65.12,-219.95 0,-115.98 -41.69,-211.95 -125.68,-286.79 -83.97,-74.84 -216.52,-111.98 -397.62,-111.98l-775.82 0 0 812.39zm1873.86 1371.13l941.5 -2454.31 357.06 0 999.77 2454.31 -370.2 0 -283.93 -743.83 -1033.5 0 -266.22 743.83 -344.48 0zm706.11 -1007.78l836.39 0 -255.94 -680.41c-77.12,-206.82 -135.41,-377.63 -175.96,-512.46 -33.71,159.97 -78.84,317.06 -135.41,472.46l-269.08 720.41zm1845.88 1007.78l0 -2454.31 333.64 0 1287.72 1926.44 0 -1926.44 311.93 0 0 2454.31 -333.64 0 -1287.72 -1926.42 0 1926.42 -311.93 0zm2372.6 -788.4l305.08 -27.42c14.28,123.41 47.98,224.53 101.12,303.94 53.14,78.84 135.39,142.82 246.79,191.94 111.41,48.56 237.09,73.14 376.49,73.14 123.98,0 233.09,-18.29 327.93,-55.43 94.85,-37.12 165.12,-87.98 211.39,-152.52 46.27,-64.56 69.69,-134.83 69.69,-210.25 0,-76.56 -22.27,-143.4 -66.84,-201.1 -44.57,-57.11 -118.25,-105.12 -221.09,-144.53 -65.7,-25.14 -211.39,-65.12 -437.05,-119.39 -225.65,-54.27 -383.34,-105.12 -473.6,-153.12 -117.12,-61.7 -203.96,-138.24 -261.09,-229.08 -57.69,-90.84 -86.26,-193.1 -86.26,-305.64 0,-124.54 35.42,-240.52 105.69,-347.93 70.27,-107.97 172.53,-189.66 307.94,-245.65 134.83,-55.99 285.07,-83.99 450.17,-83.99 181.67,0 342.2,29.13 481.04,87.98 138.82,58.27 245.65,144.53 320.5,258.79 74.84,113.7 114.82,242.82 120.53,386.77l-311.93 24c-16.55,-154.82 -73.13,-271.93 -169.67,-350.79 -96.55,-79.4 -239.36,-118.81 -427.89,-118.81 -196.53,0 -339.93,35.98 -429.63,107.97 -89.7,71.99 -134.83,158.81 -134.83,260.51 0,87.98 31.99,160.53 95.41,217.66 62.84,56.57 225.67,115.4 489.61,174.83 263.93,59.99 445.04,111.96 543.29,156.53 142.26,65.7 247.95,148.55 315.94,249.65 67.97,100.56 101.68,216.54 101.68,347.93 0,130.83 -37.12,253.08 -111.96,368.48 -74.84,115.4 -181.67,205.1 -321.65,269.08 -139.96,64 -297.07,95.99 -472.46,95.99 -221.67,0 -407.34,-32.57 -557.01,-97.13 -150.26,-64.56 -267.38,-161.67 -352.51,-291.92 -85.69,-129.7 -130.26,-276.53 -134.83,-440.49zm3016.49 788.4l0 -2166.36 -808.97 0 0 -287.95 1943.57 0 0 287.95 -808.97 0 0 2166.36 -325.63 0zm946.65 0l941.5 -2454.31 357.06 0 999.77 2454.31 -370.2 0 -283.93 -743.83 -1033.5 0 -266.22 743.83 -344.48 0zm706.11 -1007.78l836.39 0 -255.94 -680.41c-77.12,-206.82 -135.41,-377.63 -175.96,-512.46 -33.71,159.97 -78.84,317.06 -135.41,472.46l-269.08 720.41zm1835.6 1007.78l0 -2454.31 325.65 0 0 2166.38 1206.59 0 0 287.93 -1532.24 0zm2289.79 0l0 -2166.36 -808.97 0 0 -287.95 1943.57 0 0 287.95 -808.97 0 0 2166.36 -325.63 0zm3077.59 -2454.31l325.63 0 0 1417.4c0,246.81 -27.98,442.76 -83.41,587.88 -55.97,144.53 -156.53,262.79 -301.65,353.63 -145.67,90.84 -335.91,136.55 -572.44,136.55 -229.08,0 -417.05,-39.42 -562.72,-118.83 -146.25,-79.42 -250.23,-193.68 -312.51,-343.92 -62.26,-150.24 -93.69,-355.34 -93.69,-615.29l0 -1417.4 325.65 0 0 1416.84c0,213.09 19.99,370.76 59.41,471.32 39.42,101.12 106.83,179.38 203.38,233.65 95.99,54.85 213.66,82.27 352.49,82.27 237.67,0 407.34,-54.27 508.46,-162.25 101.12,-108.55 151.4,-316.5 151.4,-625l0 -1416.84zm864.36 2454.31l0 -2454.31 333.64 0 1287.72 1926.44 0 -1926.44 311.93 0 0 2454.31 -333.64 0 -1287.72 -1926.42 0 1926.42 -311.93 0zm3627.19 -963.21l0 -287.95 1038.61 0 0 909.51c-159.39,126.84 -323.93,222.81 -493.61,286.79 -169.67,64 -343.92,95.99 -522.16,95.99 -241.08,0 -459.9,-51.42 -656.99,-154.82 -196.53,-102.84 -345.64,-252.52 -445.62,-447.34 -100.54,-195.37 -150.82,-413.61 -150.82,-654.13 0,-238.81 49.7,-461.62 149.68,-668.99 99.96,-206.82 243.36,-360.49 430.76,-460.48 187.39,-100.54 403.33,-150.82 647.84,-150.82 177.1,0 337.63,28.57 481.04,86.26 143.4,57.71 255.94,137.68 337.05,239.94 81.71,102.84 143.4,237.11 185.69,402.21l-293.08 79.97c-37.14,-124.54 -82.85,-222.81 -137.12,-294.8 -54.83,-71.41 -132.53,-128.54 -234.23,-171.37 -101.12,-42.85 -213.66,-64.56 -337.63,-64.56 -147.97,0 -275.95,22.84 -384.5,67.97 -107.97,45.13 -194.79,104.56 -261.65,178.82 -66.28,73.7 -117.68,154.82 -154.24,242.8 -62.28,152.54 -93.69,317.08 -93.69,494.74 0,219.4 37.7,402.77 112.54,550.74 75.4,147.41 185.09,257.1 328.48,328.5 143.97,71.41 296.51,107.41 458.18,107.41 140.54,0 277.66,-27.44 411.33,-81.71 133.69,-54.83 234.81,-112.54 303.94,-174.81l0 -459.9 -719.83 0zm1524.79 963.21l0 -2454.31 1772.18 0 0 287.95 -1446.53 0 0 754.1 1353.98 0 0 287.95 -1353.98 0 0 836.39 1504.8 0 0 287.93 -1830.45 0zm2276.07 0l0 -2454.31 333.64 0 1287.72 1926.44 0 -1926.44 311.93 0 0 2454.31 -333.64 0 -1287.72 -1926.42 0 1926.42 -311.93 0zm2526.85 0l0 -342.78 342.78 0 0 342.78 -342.78 0zm1856.75 0l0 -2454.31 845.51 0c190.82,0 336.49,11.42 437.05,34.85 140.54,32.57 260.51,91.42 359.92,175.96 129.68,109.69 226.24,249.09 290.22,419.34 64.56,170.25 96.55,365.05 96.55,583.86 0,186.25 -21.71,351.35 -65.14,495.32 -43.41,143.95 -99.4,263.37 -167.38,357.64 -68.57,94.25 -142.84,168.52 -223.95,222.23 -80.55,54.27 -178.26,95.41 -292.52,123.39 -114.82,28 -246.21,41.71 -394.76,41.71l-885.51 0zm325.63 -287.93l523.32 0c161.69,0 288.51,-14.86 380.48,-45.15 91.98,-30.27 165.1,-72.55 219.95,-127.4 76.56,-77.12 136.55,-181.1 179.38,-311.35 42.85,-130.26 64.56,-287.93 64.56,-473.6 0,-257.1 -42.27,-454.77 -126.24,-593.01 -83.99,-138.26 -186.25,-230.82 -306.8,-277.66 -86.84,-33.71 -226.8,-50.26 -419.9,-50.26l-514.75 0 0 1878.43zm1880.73 287.93l941.5 -2454.31 357.06 0 999.77 2454.31 -370.2 0 -283.93 -743.83 -1033.5 0 -266.22 743.83 -344.48 0zm706.11 -1007.78l836.39 0 -255.94 -680.41c-77.12,-206.82 -135.41,-377.63 -175.96,-512.46 -33.71,159.97 -78.84,317.06 -135.41,472.46l-269.08 720.41zm1835.6 1007.78l0 -2454.31 920.93 0c187.39,0 337.65,24.56 451.33,74.26 113.12,49.7 201.66,126.26 265.64,229.68 64.56,102.82 96.57,210.81 96.57,323.91 0,104.56 -28.57,203.38 -85.13,295.94 -56.57,92.55 -142.26,167.4 -257.1,224.53 148.55,43.41 262.81,117.7 342.22,222.81 79.97,104.54 119.97,228.52 119.97,371.34 0,115.4 -24.58,222.23 -73.13,321.08 -48.56,98.83 -108.55,174.81 -179.98,228.52 -71.41,53.14 -161.11,93.69 -268.5,121.11 -107.97,27.42 -239.94,41.14 -396.48,41.14l-936.37 0zm325.65 -1422.53l530.73 0c143.97,0 247.37,-9.72 309.65,-28.57 82.83,-24.56 145.11,-65.7 186.81,-122.83 41.71,-57.13 62.84,-128.54 62.84,-214.8 0,-81.71 -19.41,-153.68 -58.85,-215.38 -38.84,-62.28 -94.83,-105.13 -167.38,-127.98 -72.57,-22.84 -197.11,-34.27 -373.05,-34.27l-490.75 0 0 743.83zm0 1134.6l611.28 0c105.12,0 178.82,-4.01 221.67,-12 74.26,-13.14 137.11,-35.42 187.39,-66.85 50.28,-31.41 91.4,-77.12 123.97,-137.11 32.57,-59.99 48.56,-129.12 48.56,-207.37 0,-91.98 -23.42,-171.39 -70.85,-239.38 -46.85,-67.97 -111.96,-115.4 -195.37,-142.82 -82.85,-27.42 -202.82,-41.14 -358.78,-41.14l-567.87 0 0 846.67zm1981.27 287.93l0 -2454.31 1772.18 0 0 287.95 -1446.53 0 0 754.1 1353.98 0 0 287.95 -1353.98 0 0 836.39 1504.8 0 0 287.93 -1830.45 0zm2334.34 0l0 -2454.31 325.65 0 0 2454.31 -325.65 0zm1743.62 -788.4l305.08 -27.42c14.28,123.41 47.98,224.53 101.12,303.94 53.14,78.84 135.39,142.82 246.79,191.94 111.41,48.56 237.09,73.14 376.49,73.14 123.98,0 233.09,-18.29 327.93,-55.43 94.85,-37.12 165.12,-87.98 211.39,-152.52 46.27,-64.56 69.69,-134.83 69.69,-210.25 0,-76.56 -22.27,-143.4 -66.84,-201.1 -44.57,-57.11 -118.25,-105.12 -221.09,-144.53 -65.7,-25.14 -211.39,-65.12 -437.05,-119.39 -225.65,-54.27 -383.34,-105.12 -473.6,-153.12 -117.12,-61.7 -203.96,-138.24 -261.09,-229.08 -57.69,-90.84 -86.26,-193.1 -86.26,-305.64 0,-124.54 35.42,-240.52 105.69,-347.93 70.27,-107.97 172.53,-189.66 307.94,-245.65 134.83,-55.99 285.07,-83.99 450.17,-83.99 181.67,0 342.2,29.13 481.04,87.98 138.82,58.27 245.65,144.53 320.5,258.79 74.84,113.7 114.82,242.82 120.53,386.77l-311.93 24c-16.55,-154.82 -73.13,-271.93 -169.67,-350.79 -96.55,-79.4 -239.36,-118.81 -427.89,-118.81 -196.53,0 -339.93,35.98 -429.63,107.97 -89.7,71.99 -134.83,158.81 -134.83,260.51 0,87.98 31.99,160.53 95.41,217.66 62.84,56.57 225.67,115.4 489.61,174.83 263.93,59.99 445.04,111.96 543.29,156.53 142.26,65.7 247.95,148.55 315.94,249.65 67.97,100.56 101.68,216.54 101.68,347.93 0,130.83 -37.12,253.08 -111.96,368.48 -74.84,115.4 -181.67,205.1 -321.65,269.08 -139.96,64 -297.07,95.99 -472.46,95.99 -221.67,0 -407.34,-32.57 -557.01,-97.13 -150.26,-64.56 -267.38,-161.67 -352.51,-291.92 -85.69,-129.7 -130.26,-276.53 -134.83,-440.49zm2399.47 788.4l0 -2454.31 1772.18 0 0 287.95 -1446.53 0 0 754.1 1353.98 0 0 287.95 -1353.98 0 0 836.39 1504.8 0 0 287.93 -1830.45 0zm2334.34 0l0 -2454.31 325.65 0 0 2454.31 -325.65 0zm894.1 0l0 -2454.31 333.64 0 1287.72 1926.44 0 -1926.44 311.93 0 0 2454.31 -333.64 0 -1287.72 -1926.42 0 1926.42 -311.93 0zm2526.85 0l0 -342.78 342.78 0 0 342.78 -342.78 0z"/>
 </g>
</svg>
